<svg height="32" version="1.1" viewBox="0 0 192 192" width="32" xmlns="http://www.w3.org/2000/svg">
  <path d="M 96,96
           L 8,96
           A 88 88 1 0,1 96,8
           z" fill="#bdbdbd" />
  <path d="M 96,96
           L 96,8
           A 88 88 1 0,1 184,96
           z" fill="#424242" />
  <path d="M 96,96
           L 184,96
           A 88 88 1 0,1 96,184
           z" fill="#64b5f6" />
  <path d="M 96,96
           L 96,184
           A 88 88 1 0,1 8,96
           z" fill="#757575" />
  <g fill="#ffffff">
    <polygon points="39,54 54,54 54,39 62,39 62,54 77,54 77,62 62,62 62,77 54,77 54,62 39,62" />
    <rect height="8" width="38" x="115" y="54" />
    <polygon points="44,115 58,129 72,115 77,120 63,134 77,148 72,153 58,139 44,153 39,148 53,134 39,120" />
    <rect height="8" width="38" x="115" y="122" />
    <rect height="8" width="38" x="115" y="138" />
  </g>
</svg>
